<svg xmlns="http://www.w3.org/2000/svg" version="1.1" xmlns:xlink="http://www.w3.org/1999/xlink" xmlns:svgjs="http://svgjs.dev/svgjs" width="1500" height="1500" viewBox="0 0 1500 1500"><rect width="1500" height="1500" fill="#040046"></rect><g transform="matrix(0.6666666666666666,0,0,0.6666666666666666,249.39393939393938,675.2282642651612)"><svg viewBox="0 0 396 59" data-background-color="#040046" preserveAspectRatio="xMidYMid meet" height="223" width="1500" xmlns="http://www.w3.org/2000/svg" xmlns:xlink="http://www.w3.org/1999/xlink"><g id="tight-bounds" transform="matrix(1,0,0,1,0.2400000000000091,0.1739848095660932)"><svg viewBox="0 0 395.52 58.65203038086784" height="58.65203038086784" width="395.52"><g><svg viewBox="0 0 483.600849464093 71.71362185219833" height="58.65203038086784" width="395.52"><g transform="matrix(1,0,0,1,0,1.262685575304026)"><svg viewBox="0 0 395.52 69.18825070159028" height="69.18825070159028" width="395.52"><g id="textblocktransform"><svg viewBox="0 0 395.52 69.18825070159028" height="69.18825070159028" width="395.52" id="textblock"><g><svg viewBox="0 0 395.52 69.18825070159028" height="69.18825070159028" width="395.52"><g transform="matrix(1,0,0,1,0,0)"><svg width="395.52" viewBox="2.73 -36.04 208.78 36.53" height="69.18825070159028" data-palette-color="url(#02b18a32-001b-4488-811f-2d5a08a5926c)"></svg></g></svg></g></svg></g></svg></g><g transform="matrix(1,0,0,1,411.8536854726286,0)"><svg viewBox="0 0 71.74716399146442 71.71362185219833" height="71.71362185219833" width="71.74716399146442"><g><svg xmlns="http://www.w3.org/2000/svg" xml:space="preserve" viewBox="0.7607695154586737 0.7749999999999999 30.43923048454133 30.424999999999997" x="0" y="0" height="71.71362185219833" width="71.74716399146442" class="icon-icon-0" data-fill-palette-color="accent" id="icon-0"></svg></g></svg></g></svg></g><defs></defs><mask id="bf9ed666-64ec-4ab6-a430-4f8a30867d27"><g id="SvgjsG5696"><svg viewBox="0 0 395.52 58.65203038086784" height="58.65203038086784" width="395.52"><g><svg viewBox="0 0 483.600849464093 71.71362185219833" height="58.65203038086784" width="395.52"><g transform="matrix(1,0,0,1,0,1.262685575304026)"><svg viewBox="0 0 395.52 69.18825070159028" height="69.18825070159028" width="395.52"><g id="SvgjsG5695"><svg viewBox="0 0 395.52 69.18825070159028" height="69.18825070159028" width="395.52" id="SvgjsSvg5694"><g><svg viewBox="0 0 395.52 69.18825070159028" height="69.18825070159028" width="395.52"><g transform="matrix(1,0,0,1,0,0)"><svg width="395.52" viewBox="2.73 -36.04 208.78 36.53" height="69.18825070159028" data-palette-color="url(#02b18a32-001b-4488-811f-2d5a08a5926c)"><path d="M14.62 0.49L14.62 0.49Q11.79 0.49 9.47-0.17 7.15-0.83 5.44-1.89 3.74-2.95 2.73-4.17L2.73-4.17 5.35-6.69 5.66-6.69Q7.4-4.98 9.78-4.13 12.16-3.27 14.6-3.27L14.6-3.27Q17.92-3.27 20.15-4.65 22.39-6.03 22.39-9.38L22.39-9.38Q22.39-11.06 21.78-12.08 21.17-13.11 19.68-13.95 18.19-14.79 15.58-15.87L15.58-15.87 10.62-17.92Q8.18-18.95 6.43-19.95 4.69-20.95 3.77-22.45 2.86-23.95 2.86-26.44L2.86-26.44Q2.86-29.27 3.87-31.14 4.88-33.01 6.62-34.08 8.35-35.16 10.56-35.6 12.77-36.04 15.14-36.04L15.14-36.04Q17.5-36.04 19.6-35.49 21.7-34.94 23.44-33.91 25.17-32.89 26.39-31.47L26.39-31.47 23.85-28.93 23.49-28.93Q22.09-30.54 19.86-31.43 17.63-32.32 14.94-32.32L14.94-32.32Q12.96-32.32 11.29-31.84 9.62-31.35 8.62-30.19 7.62-29.03 7.62-26.95L7.62-26.95Q7.62-25.68 8.07-24.82 8.52-23.95 9.63-23.25 10.74-22.56 12.7-21.75L12.7-21.75 17.7-19.73Q20.61-18.55 22.67-17.37 24.73-16.19 25.82-14.36 26.9-12.52 26.9-9.35L26.9-9.35Q26.9-6.57 25.84-4.68 24.78-2.78 23-1.65 21.22-0.51 19.04-0.01 16.87 0.49 14.62 0.49ZM38.28 0L33.84 0 33.84-26.42 37.55-26.42 38.01-21.24Q39.23-24.27 41.35-25.63 43.48-27 46.07-27L46.07-27Q48.09-27 49.66-26.25 51.22-25.49 52.27-24.1 53.32-22.71 53.81-20.78L53.81-20.78Q55.1-23.97 57.38-25.49 59.67-27 62.5-27L62.5-27Q66.57-27 68.75-24.45 70.92-21.9 70.92-17.02L70.92-17.02 70.92 0 66.5 0 66.5-15.72Q66.5-17.65 66.16-19.48 65.82-21.31 64.78-22.5 63.74-23.68 61.64-23.68L61.64-23.68Q60.01-23.68 58.38-22.62 56.76-21.56 55.69-19.52 54.61-17.48 54.61-14.55L54.61-14.55 54.61 0 50.17 0 50.17-14.89Q50.17-17.94 49.67-19.89 49.17-21.83 48.07-22.75 46.97-23.68 45.19-23.68L45.19-23.68Q43.21-23.68 41.77-22.62 40.33-21.56 39.45-19.73 38.57-17.9 38.28-15.58L38.28-15.58 38.28 0ZM85.96 0.49L85.96 0.49Q82.17 0.49 79.8-1.42 77.44-3.32 77.44-7.18L77.44-7.18Q77.44-8.94 78.06-10.3 78.68-11.67 79.95-12.61 81.22-13.55 83.22-14.04 85.22-14.53 87.96-14.53L87.96-14.53 93.92-14.53 93.92-17.58Q93.92-20.78 92.48-22.2 91.04-23.63 88.13-23.63L88.13-23.63Q86.25-23.63 83.89-23.03 81.54-22.44 79.66-21.14L79.66-21.14 78.36-24.51Q79.71-25.37 81.33-25.92 82.95-26.46 84.72-26.73 86.49-27 88.25-27L88.25-27Q91.23-27 93.5-26.05 95.77-25.1 97.05-22.95 98.33-20.8 98.33-17.21L98.33-17.21 98.33 0 94.62 0 94.31-3.25Q93.26-2 92.01-1.17 90.77-0.34 89.27 0.07 87.76 0.49 85.96 0.49ZM86.64-2.66L86.64-2.66Q88.98-2.66 90.84-3.64 92.7-4.61 93.92-6.18L93.92-6.18 93.92-11.72 88.76-11.72Q86.08-11.72 84.52-11.21 82.95-10.69 82.31-9.68 81.66-8.67 81.66-7.13L81.66-7.13Q81.66-4.64 83.11-3.65 84.57-2.66 86.64-2.66ZM110.64 0L106.22 0 106.22-26.42 109.81-26.42 110.25-20.92Q111.61-24.19 113.62-25.46 115.62-26.73 117.86-26.73L117.86-26.73Q118.4-26.73 118.86-26.71 119.33-26.68 119.79-26.61L119.79-26.61 119.45-23.1Q119.21-23.1 118.96-23.11 118.72-23.12 118.45-23.12L118.45-23.12Q115.81-23.12 114.08-22.02 112.35-20.92 111.49-19.08 110.64-17.24 110.64-14.99L110.64-14.99 110.64 0ZM135.44 0.2L135.44 0.2Q132.63 0.2 130.91-0.23 129.19-0.66 128.3-1.61 127.41-2.56 127.09-4.17 126.77-5.79 126.77-8.15L126.77-8.15 126.77-23.71 122.6-23.71 122.72-26.17 126.89-26.39 127.53-33.54 131.22-33.81 131.22-26.42 138.25-26.42 138.25-23.71 131.22-23.71 131.22-8.13Q131.22-6.05 131.45-4.98 131.68-3.91 132.58-3.5 133.49-3.1 135.44-3.03L135.44-3.03Q136.1-3 136.76-2.98 137.42-2.95 138.08-2.93L138.08-2.93 137.88 0.2Q137.27 0.2 136.66 0.2 136.05 0.2 135.44 0.2ZM146.86 0L142.18 0 155.48-35.55 160.31-35.55 173.74 0 169.03 0 164.93-11.06 150.94-11.06 146.86 0ZM157.92-30.96L152.04-14.6 163.83-14.6 157.92-30.96ZM183.9 0L179.48 0 179.48-26.42 183.07-26.42 183.51-20.92Q184.87-24.19 186.87-25.46 188.88-26.73 191.12-26.73L191.12-26.73Q191.66-26.73 192.12-26.71 192.59-26.68 193.05-26.61L193.05-26.61 192.71-23.1Q192.47-23.1 192.22-23.11 191.98-23.12 191.71-23.12L191.71-23.12Q189.07-23.12 187.34-22.02 185.61-20.92 184.75-19.08 183.9-17.24 183.9-14.99L183.9-14.99 183.9 0ZM208.7 0.2L208.7 0.2Q205.89 0.2 204.17-0.23 202.45-0.66 201.56-1.61 200.67-2.56 200.35-4.17 200.03-5.79 200.03-8.15L200.03-8.15 200.03-23.71 195.86-23.71 195.98-26.17 200.15-26.39 200.79-33.54 204.47-33.81 204.47-26.42 211.51-26.42 211.51-23.71 204.47-23.71 204.47-8.13Q204.47-6.05 204.71-4.98 204.94-3.91 205.84-3.5 206.75-3.1 208.7-3.03L208.7-3.03Q209.36-3 210.02-2.98 210.68-2.95 211.34-2.93L211.34-2.93 211.14 0.2Q210.53 0.2 209.92 0.2 209.31 0.2 208.7 0.2Z" opacity="1" transform="matrix(1,0,0,1,0,0)" fill="white" class="wordmark-text-0" id="SvgjsPath5693"></path></svg></g></svg></g></svg></g></svg></g><g transform="matrix(1,0,0,1,411.8536854726286,0)"><svg viewBox="0 0 71.74716399146442 71.71362185219833" height="71.71362185219833" width="71.74716399146442"><g><svg xmlns="http://www.w3.org/2000/svg" xml:space="preserve" viewBox="0.7607695154586737 0.7749999999999999 30.43923048454133 30.424999999999997" x="0" y="0" height="71.71362185219833" width="71.74716399146442" class="icon-icon-0" data-fill-palette-color="accent" id="SvgjsSvg5692"><path d="M1.5 31.2c-0.2 0-0.4-0.1-0.5-0.2-0.2-0.2-0.3-0.4-0.2-0.7l3.7-19.1c0.1-0.3 0.3-0.6 0.6-0.6l9.6-1.3c0.2 0 0.5 0 0.6 0.2l7.2 7.2c0.2 0.2 0.2 0.4 0.2 0.6l-1.3 9.6c0 0.3-0.3 0.6-0.6 0.6L1.6 31.2z m4.3-19.1L2.4 29.6l17.5-3.4 1.2-8.7-6.7-6.7z" fill="black"></path><path d="M1.977 31.044l-1.06-1.061 8.909-8.91 1.06 1.061z" fill="black"></path><path d="M12 23.1c-0.8 0-1.6-0.3-2.2-0.9s-0.9-1.3-0.9-2.2c0-0.8 0.3-1.6 0.9-2.2 1.2-1.2 3.2-1.2 4.3 0 1.2 1.2 1.2 3.1 0 4.3-0.5 0.7-1.3 1-2.1 1m0-4.7c-0.4 0-0.8 0.2-1.1 0.5s-0.5 0.7-0.5 1.1 0.2 0.8 0.5 1.1c0.6 0.6 1.6 0.6 2.2 0s0.6-1.6 0-2.2c-0.3-0.3-0.7-0.5-1.1-0.5M23.8 18.7c-0.9 0-1.8-0.4-2.4-1l-7.1-7.1c-1.3-1.3-1.3-3.5 0-4.8L19.1 1c0.3-0.3 0.8-0.3 1.1 0L31 11.8c0.1 0.1 0.2 0.3 0.2 0.5s-0.1 0.4-0.2 0.5l-4.9 4.9c-0.6 0.7-1.4 1-2.3 1M19.7 2.6l-4.3 4.3c-0.7 0.7-0.7 2 0 2.7l7.1 7.1c0.7 0.7 2 0.7 2.7 0l4.3-4.3z" fill="black"></path></svg></g></svg></g></svg></g><defs><mask></mask></defs></svg><rect width="395.52" height="58.65203038086784" fill="black" stroke="none" visibility="hidden"></rect></g></mask><linearGradient x1="0" x2="1" y1="0.578" y2="0.595" id="02b18a32-001b-4488-811f-2d5a08a5926c"><stop stop-color="#6ee2f5" offset="0"></stop><stop stop-color="#6454f0" offset="1"></stop></linearGradient><rect width="395.52" height="58.65203038086784" fill="url(#02b18a32-001b-4488-811f-2d5a08a5926c)" mask="url(#bf9ed666-64ec-4ab6-a430-4f8a30867d27)" data-fill-palette-color="primary"></rect><mask id="56ee1aca-cdc2-4a8d-95d1-ea7b3e8c1c24"><g id="SvgjsG5715"><svg viewBox="0 0 395.52 58.65203038086784" height="58.65203038086784" width="395.52"><g><svg viewBox="0 0 483.600849464093 71.71362185219833" height="58.65203038086784" width="395.52"><g transform="matrix(1,0,0,1,0,1.262685575304026)"><svg viewBox="0 0 395.52 69.18825070159028" height="69.18825070159028" width="395.52"><g id="SvgjsG5714"><svg viewBox="0 0 395.52 69.18825070159028" height="69.18825070159028" width="395.52" id="SvgjsSvg5713"><g><svg viewBox="0 0 395.52 69.18825070159028" height="69.18825070159028" width="395.52"><g transform="matrix(1,0,0,1,0,0)"><svg width="395.52" viewBox="2.73 -36.04 208.78 36.53" height="69.18825070159028" data-palette-color="url(#02b18a32-001b-4488-811f-2d5a08a5926c)"></svg></g></svg></g></svg></g></svg></g><g transform="matrix(1,0,0,1,411.8536854726286,0)"><svg viewBox="0 0 71.74716399146442 71.71362185219833" height="71.71362185219833" width="71.74716399146442"><g><svg xmlns="http://www.w3.org/2000/svg" xml:space="preserve" viewBox="0.7607695154586737 0.7749999999999999 30.43923048454133 30.424999999999997" x="0" y="0" height="71.71362185219833" width="71.74716399146442" class="icon-icon-0" data-fill-palette-color="accent" id="SvgjsSvg5712"><path d="M1.5 31.2c-0.2 0-0.4-0.1-0.5-0.2-0.2-0.2-0.3-0.4-0.2-0.7l3.7-19.1c0.1-0.3 0.3-0.6 0.6-0.6l9.6-1.3c0.2 0 0.5 0 0.6 0.2l7.2 7.2c0.2 0.2 0.2 0.4 0.2 0.6l-1.3 9.6c0 0.3-0.3 0.6-0.6 0.6L1.6 31.2z m4.3-19.1L2.4 29.6l17.5-3.4 1.2-8.7-6.7-6.7z" fill="white"></path><path d="M1.977 31.044l-1.06-1.061 8.909-8.91 1.06 1.061z" fill="white"></path><path d="M12 23.1c-0.8 0-1.6-0.3-2.2-0.9s-0.9-1.3-0.9-2.2c0-0.8 0.3-1.6 0.9-2.2 1.2-1.2 3.2-1.2 4.3 0 1.2 1.2 1.2 3.1 0 4.3-0.5 0.7-1.3 1-2.1 1m0-4.7c-0.4 0-0.8 0.2-1.1 0.5s-0.5 0.7-0.5 1.1 0.2 0.8 0.5 1.1c0.6 0.6 1.6 0.6 2.2 0s0.6-1.6 0-2.2c-0.3-0.3-0.7-0.5-1.1-0.5M23.8 18.7c-0.9 0-1.8-0.4-2.4-1l-7.1-7.1c-1.3-1.3-1.3-3.5 0-4.8L19.1 1c0.3-0.3 0.8-0.3 1.1 0L31 11.8c0.1 0.1 0.2 0.3 0.2 0.5s-0.1 0.4-0.2 0.5l-4.9 4.9c-0.6 0.7-1.4 1-2.3 1M19.7 2.6l-4.3 4.3c-0.7 0.7-0.7 2 0 2.7l7.1 7.1c0.7 0.7 2 0.7 2.7 0l4.3-4.3z" fill="white"></path></svg></g></svg></g></svg></g><defs><mask></mask></defs><mask><g id="SvgjsG5711"><svg viewBox="0 0 395.52 58.65203038086784" height="58.65203038086784" width="395.52"><g><svg viewBox="0 0 483.600849464093 71.71362185219833" height="58.65203038086784" width="395.52"><g transform="matrix(1,0,0,1,0,1.262685575304026)"><svg viewBox="0 0 395.52 69.18825070159028" height="69.18825070159028" width="395.52"><g id="SvgjsG5710"><svg viewBox="0 0 395.52 69.18825070159028" height="69.18825070159028" width="395.52" id="SvgjsSvg5709"><g><svg viewBox="0 0 395.52 69.18825070159028" height="69.18825070159028" width="395.52"><g transform="matrix(1,0,0,1,0,0)"><svg width="395.52" viewBox="2.73 -36.04 208.78 36.53" height="69.18825070159028" data-palette-color="url(#02b18a32-001b-4488-811f-2d5a08a5926c)"><path d="M14.62 0.49L14.62 0.49Q11.79 0.49 9.47-0.17 7.15-0.83 5.44-1.89 3.74-2.95 2.73-4.17L2.73-4.17 5.35-6.69 5.66-6.69Q7.4-4.98 9.78-4.13 12.16-3.27 14.6-3.27L14.6-3.27Q17.92-3.27 20.15-4.65 22.39-6.03 22.39-9.38L22.39-9.38Q22.39-11.06 21.78-12.08 21.17-13.11 19.68-13.95 18.19-14.79 15.58-15.87L15.58-15.87 10.62-17.92Q8.18-18.95 6.43-19.95 4.69-20.95 3.77-22.45 2.86-23.95 2.86-26.44L2.86-26.44Q2.86-29.27 3.87-31.14 4.88-33.01 6.62-34.08 8.35-35.16 10.56-35.6 12.77-36.04 15.14-36.04L15.14-36.04Q17.5-36.04 19.6-35.49 21.7-34.94 23.44-33.91 25.17-32.89 26.39-31.47L26.39-31.47 23.85-28.93 23.49-28.93Q22.09-30.54 19.86-31.43 17.63-32.32 14.94-32.32L14.94-32.32Q12.96-32.32 11.29-31.84 9.62-31.35 8.62-30.19 7.62-29.03 7.62-26.95L7.62-26.95Q7.62-25.68 8.07-24.82 8.52-23.95 9.63-23.25 10.74-22.56 12.7-21.75L12.7-21.75 17.7-19.73Q20.61-18.55 22.67-17.37 24.73-16.19 25.82-14.36 26.9-12.52 26.9-9.35L26.9-9.35Q26.9-6.57 25.84-4.68 24.78-2.78 23-1.65 21.22-0.51 19.04-0.01 16.87 0.49 14.62 0.49ZM38.28 0L33.84 0 33.84-26.42 37.55-26.42 38.01-21.24Q39.23-24.27 41.35-25.63 43.48-27 46.07-27L46.07-27Q48.09-27 49.66-26.25 51.22-25.49 52.27-24.1 53.32-22.71 53.81-20.78L53.81-20.78Q55.1-23.97 57.38-25.49 59.67-27 62.5-27L62.5-27Q66.57-27 68.75-24.45 70.92-21.9 70.92-17.02L70.92-17.02 70.92 0 66.5 0 66.5-15.72Q66.5-17.65 66.16-19.48 65.82-21.31 64.78-22.5 63.74-23.68 61.64-23.68L61.64-23.68Q60.01-23.68 58.38-22.62 56.76-21.56 55.69-19.52 54.61-17.48 54.61-14.55L54.61-14.55 54.61 0 50.17 0 50.17-14.89Q50.17-17.94 49.67-19.89 49.17-21.83 48.07-22.75 46.97-23.68 45.19-23.68L45.19-23.68Q43.21-23.68 41.77-22.62 40.33-21.56 39.45-19.73 38.57-17.9 38.28-15.58L38.28-15.58 38.28 0ZM85.96 0.49L85.96 0.49Q82.17 0.49 79.8-1.42 77.44-3.32 77.44-7.18L77.44-7.18Q77.44-8.94 78.06-10.3 78.68-11.67 79.95-12.61 81.22-13.55 83.22-14.04 85.22-14.53 87.96-14.53L87.96-14.53 93.92-14.53 93.92-17.58Q93.92-20.78 92.48-22.2 91.04-23.63 88.13-23.63L88.13-23.63Q86.25-23.63 83.89-23.03 81.54-22.44 79.66-21.14L79.66-21.14 78.36-24.51Q79.71-25.37 81.33-25.92 82.95-26.46 84.72-26.73 86.49-27 88.25-27L88.25-27Q91.23-27 93.5-26.05 95.77-25.1 97.05-22.95 98.33-20.8 98.33-17.21L98.33-17.21 98.33 0 94.62 0 94.31-3.25Q93.26-2 92.01-1.17 90.77-0.34 89.27 0.07 87.76 0.49 85.96 0.49ZM86.64-2.66L86.64-2.66Q88.98-2.66 90.84-3.64 92.7-4.61 93.92-6.18L93.92-6.18 93.92-11.72 88.76-11.72Q86.08-11.72 84.52-11.21 82.95-10.69 82.31-9.68 81.66-8.67 81.66-7.13L81.66-7.13Q81.66-4.64 83.11-3.65 84.57-2.66 86.64-2.66ZM110.64 0L106.22 0 106.22-26.42 109.81-26.42 110.25-20.92Q111.61-24.19 113.62-25.46 115.62-26.73 117.86-26.73L117.86-26.73Q118.4-26.73 118.86-26.71 119.33-26.68 119.79-26.61L119.79-26.61 119.45-23.1Q119.21-23.1 118.96-23.11 118.72-23.12 118.45-23.12L118.45-23.12Q115.81-23.12 114.08-22.02 112.35-20.92 111.49-19.08 110.64-17.24 110.64-14.99L110.64-14.99 110.64 0ZM135.44 0.2L135.44 0.2Q132.63 0.2 130.91-0.23 129.19-0.66 128.3-1.61 127.41-2.56 127.09-4.17 126.77-5.79 126.77-8.15L126.77-8.15 126.77-23.71 122.6-23.71 122.72-26.17 126.89-26.39 127.53-33.54 131.22-33.81 131.22-26.42 138.25-26.42 138.25-23.71 131.22-23.71 131.22-8.13Q131.22-6.05 131.45-4.98 131.68-3.91 132.58-3.5 133.49-3.1 135.44-3.03L135.44-3.03Q136.1-3 136.76-2.98 137.42-2.95 138.08-2.93L138.08-2.93 137.88 0.2Q137.27 0.2 136.66 0.2 136.05 0.2 135.44 0.2ZM146.86 0L142.18 0 155.48-35.55 160.31-35.55 173.74 0 169.03 0 164.93-11.06 150.94-11.06 146.86 0ZM157.92-30.96L152.04-14.6 163.83-14.6 157.92-30.96ZM183.9 0L179.48 0 179.48-26.42 183.07-26.42 183.51-20.92Q184.87-24.19 186.87-25.46 188.88-26.73 191.12-26.73L191.12-26.73Q191.66-26.73 192.12-26.71 192.59-26.68 193.05-26.61L193.05-26.61 192.71-23.1Q192.47-23.1 192.22-23.11 191.98-23.12 191.71-23.12L191.71-23.12Q189.07-23.12 187.34-22.02 185.61-20.92 184.75-19.08 183.9-17.24 183.9-14.99L183.9-14.99 183.9 0ZM208.7 0.2L208.7 0.2Q205.89 0.2 204.17-0.23 202.45-0.66 201.56-1.61 200.67-2.56 200.35-4.17 200.03-5.79 200.03-8.15L200.03-8.15 200.03-23.71 195.86-23.71 195.98-26.17 200.15-26.39 200.79-33.54 204.47-33.81 204.47-26.42 211.51-26.42 211.51-23.71 204.47-23.71 204.47-8.13Q204.47-6.05 204.71-4.98 204.94-3.91 205.84-3.5 206.75-3.1 208.7-3.03L208.7-3.03Q209.36-3 210.02-2.98 210.68-2.95 211.34-2.93L211.34-2.93 211.14 0.2Q210.53 0.2 209.92 0.2 209.31 0.2 208.7 0.2Z" opacity="1" transform="matrix(1,0,0,1,0,0)" fill="black" class="wordmark-text-0" id="SvgjsPath5708"></path></svg></g></svg></g></svg></g></svg></g><g transform="matrix(1,0,0,1,411.8536854726286,0)"><svg viewBox="0 0 71.74716399146442 71.71362185219833" height="71.71362185219833" width="71.74716399146442"><g><svg xmlns="http://www.w3.org/2000/svg" xml:space="preserve" viewBox="0.7607695154586737 0.7749999999999999 30.43923048454133 30.424999999999997" x="0" y="0" height="71.71362185219833" width="71.74716399146442" class="icon-icon-0" data-fill-palette-color="accent" id="SvgjsSvg5707"><path d="M1.5 31.2c-0.2 0-0.4-0.1-0.5-0.2-0.2-0.2-0.3-0.4-0.2-0.7l3.7-19.1c0.1-0.3 0.3-0.6 0.6-0.6l9.6-1.3c0.2 0 0.5 0 0.6 0.2l7.2 7.2c0.2 0.2 0.2 0.4 0.2 0.6l-1.3 9.6c0 0.3-0.3 0.6-0.6 0.6L1.6 31.2z m4.3-19.1L2.4 29.6l17.5-3.4 1.2-8.7-6.7-6.7z" fill="black"></path><path d="M1.977 31.044l-1.06-1.061 8.909-8.91 1.06 1.061z" fill="black"></path><path d="M12 23.1c-0.8 0-1.6-0.3-2.2-0.9s-0.9-1.3-0.9-2.2c0-0.8 0.3-1.6 0.9-2.2 1.2-1.2 3.2-1.2 4.3 0 1.2 1.2 1.2 3.1 0 4.3-0.5 0.7-1.3 1-2.1 1m0-4.7c-0.4 0-0.8 0.2-1.1 0.5s-0.5 0.7-0.5 1.1 0.2 0.8 0.5 1.1c0.6 0.6 1.6 0.6 2.2 0s0.6-1.6 0-2.2c-0.3-0.3-0.7-0.5-1.1-0.5M23.8 18.7c-0.9 0-1.8-0.4-2.4-1l-7.1-7.1c-1.3-1.3-1.3-3.5 0-4.8L19.1 1c0.3-0.3 0.8-0.3 1.1 0L31 11.8c0.1 0.1 0.2 0.3 0.2 0.5s-0.1 0.4-0.2 0.5l-4.9 4.9c-0.6 0.7-1.4 1-2.3 1M19.7 2.6l-4.3 4.3c-0.7 0.7-0.7 2 0 2.7l7.1 7.1c0.7 0.7 2 0.7 2.7 0l4.3-4.3z" fill="black"></path></svg></g></svg></g></svg></g><defs><mask></mask></defs></svg><rect width="395.52" height="58.65203038086784" fill="black" stroke="none" visibility="hidden"></rect></g></mask></svg><rect width="395.52" height="58.65203038086784" fill="black" stroke="none" visibility="hidden"></rect></g></mask><linearGradient x1="0" x2="1" y1="0.578" y2="0.595" id="bfd06975-654e-4274-9f97-11270dba665d"><stop stop-color="#6ee2f5" offset="0"></stop><stop stop-color="#6454f0" offset="1"></stop></linearGradient><rect width="395.52" height="58.65203038086784" fill="url(#bfd06975-654e-4274-9f97-11270dba665d)" mask="url(#56ee1aca-cdc2-4a8d-95d1-ea7b3e8c1c24)" data-fill-palette-color="accent"></rect></svg><rect width="395.52" height="58.65203038086784" fill="none" stroke="none" visibility="hidden"></rect></g></svg></g></svg>